<svg width="123" height="211" viewBox="0 0 123 211" fill="none" xmlns="http://www.w3.org/2000/svg">
<path fill-rule="evenodd" clip-rule="evenodd" d="M60.1655 127.757C60.1655 122.553 64.3847 118.333 69.5904 118.333H109.348C114.553 118.333 118.772 122.552 118.772 127.757V197.565C118.772 202.77 114.553 206.989 109.348 206.989H69.5904C64.3847 206.989 60.1655 202.77 60.1655 197.565V127.757Z" stroke="#06BAB5" stroke-width="8" stroke-miterlimit="3.8637"/>
<path d="M89.4808 181.39C99.8244 181.39 108.21 173.005 108.21 162.661C108.21 152.317 99.8244 143.932 89.4808 143.932C79.1371 143.932 70.752 152.317 70.752 162.661C70.752 173.005 79.1371 181.39 89.4808 181.39Z" stroke="#06BAB5" stroke-width="8" stroke-miterlimit="3.8637"/>
<path d="M82.1714 162.654H96.7831" stroke="#06BAB5" stroke-width="8" stroke-miterlimit="3.8637" stroke-linecap="round"/>
<path d="M89.4736 169.963V155.352" stroke="#06BAB5" stroke-width="8" stroke-miterlimit="3.8637" stroke-linecap="round"/>
<path fill-rule="evenodd" clip-rule="evenodd" d="M14.0921 4.16457C18.4531 4.16457 21.9893 7.69978 21.9893 12.0618V109.42C21.9893 113.781 18.4541 117.316 14.0921 117.316H11.8962C7.53517 117.316 4 113.781 4 109.42V12.0608C4 7.69977 7.53517 4.16357 11.8962 4.16357H14.0921V4.16457Z" stroke="#06BAB5" stroke-width="8" stroke-miterlimit="3.8637"/>
<path d="M23.0811 105.007C23.0811 105.007 47.1117 105.664 58.2546 86.954C67.5843 71.2895 67.3167 52.4496 59.2232 38.1075C51.1297 23.7655 34.5383 14.3555 23.7711 15.673" stroke="#06BAB5" stroke-width="8" stroke-miterlimit="3.8637"/>
<path fill-rule="evenodd" clip-rule="evenodd" d="M81.5586 53.4238C81.5586 51.6889 82.9654 50.2822 84.7003 50.2822H94.9628C96.6977 50.2822 98.1045 51.6879 98.1045 53.4238V69.701C98.1045 71.4359 96.6977 72.8426 94.9628 72.8426H84.7003C82.9654 72.8426 81.5586 71.4359 81.5586 69.701V53.4238Z" stroke="#06BAB5" stroke-width="8" stroke-miterlimit="3.8637"/>
<path d="M94.9546 73.0801V106.882" stroke="#06BAB5" stroke-width="8" stroke-miterlimit="3.8637"/>
<path d="M84.6543 73.0801V106.882" stroke="#06BAB5" stroke-width="8" stroke-miterlimit="3.8637"/>
<path d="M76.0693 118.356V110.194C76.0693 108.459 77.4761 107.052 79.211 107.052H100.239C101.974 107.052 103.38 108.459 103.38 110.194L103.45 118.356" stroke="#06BAB5" stroke-width="8" stroke-miterlimit="3.8637"/>
<path d="M98.0372 55.5835H110.695C114.165 55.5835 116.978 58.396 116.978 61.8668C116.978 65.4367 114.165 68.2492 110.695 68.2492H97.9688" stroke="#06BAB5" stroke-width="8" stroke-miterlimit="3.8637"/>
<path d="M70.8745 57.7901L81.7201 57.7891" stroke="#06BAB5" stroke-width="8" stroke-miterlimit="3.8637"/>
<path d="M64.2046 52.749H67.6713C69.4062 52.749 70.813 54.1547 70.813 55.8896V68.9429C70.813 70.6778 69.4062 72.0845 67.6713 72.0845H64.1353" stroke="#06BAB5" stroke-width="8" stroke-miterlimit="3.8637"/>
<path d="M70.8745 66.2852L81.7201 66.2842" stroke="#06BAB5" stroke-width="8" stroke-miterlimit="3.8637"/>
</svg>
