<svg width="231" height="217" viewBox="0 0 231 217" fill="none" xmlns="http://www.w3.org/2000/svg">
<path d="M135.918 143.406C143.559 132.547 144.307 123.285 141.951 111.467C138.791 95.6098 128.124 83.1152 107.611 81.7842C83.2599 80.2045 73.6377 106.135 73.6377 106.135C73.6377 106.135 63.8749 80.2045 39.5237 81.7842C19.0113 83.1152 8.34393 95.611 5.18343 111.467C1.85078 128.19 4.73226 139.796 24.5684 158.053C47.2117 178.891 75.2185 200.433 73.7232 212.228C72.813 205.048 82.6647 194.257 95.7173 182.211" stroke="#06BAB5" stroke-width="8" stroke-miterlimit="3.8637" stroke-linecap="round" stroke-linejoin="round"/>
<path d="M103.32 163.591C110.956 163.591 117.147 157.401 117.147 149.764C117.147 142.128 110.956 135.938 103.32 135.938C95.6838 135.938 89.4933 142.128 89.4933 149.764C89.4933 157.401 95.6838 163.591 103.32 163.591Z" stroke="#06BAB5" stroke-width="8" stroke-miterlimit="3.8637" stroke-linecap="round" stroke-linejoin="round"/>
<path d="M77.2761 149.794C77.2761 135.393 88.9495 123.72 103.35 123.72" stroke="#06BAB5" stroke-width="8" stroke-miterlimit="3.8637" stroke-linecap="round" stroke-linejoin="round"/>
<path d="M122.573 167.792C122.573 167.792 132.76 180.425 152.838 179.71C174.928 178.923 184.921 157.165 184.921 144.016C184.921 130.866 184.921 79.3162 184.921 79.3162" stroke="#06BAB5" stroke-width="8" stroke-miterlimit="3.8637" stroke-linecap="round" stroke-linejoin="round"/>
<path d="M215.192 15.1215L211.053 13.1053C211.053 13.1053 208.053 11.8316 209.872 7.25347C211.69 2.67642 217.542 3.85668 220.407 5.23722C221.663 5.84142 223.083 6.7539 224.283 7.74965C225.824 9.02668 226.977 10.4173 227.002 15.7932C227.002 19.4477 227.002 23.9595 227.002 23.9595C227.002 23.9595 226.683 41.5003 222.212 51.6119C217.707 61.7977 210.309 79.5816 185.098 79.5816" stroke="#06BAB5" stroke-width="8" stroke-miterlimit="3.8637" stroke-linecap="round" stroke-linejoin="round"/>
<path d="M154.351 15.1215L158.492 13.1053C158.492 13.1053 161.492 11.8316 159.673 7.25347C157.855 2.67642 152.003 3.85668 149.138 5.23722C147.882 5.84142 146.462 6.7539 145.262 7.74965C143.721 9.02668 142.568 10.4173 142.543 15.7932C142.543 19.4477 142.543 23.9595 142.543 23.9595C142.543 23.9595 142.862 41.5003 147.334 51.6119C151.838 61.7977 159.237 79.5816 184.448 79.5816" stroke="#06BAB5" stroke-width="8" stroke-miterlimit="3.8637" stroke-linecap="round" stroke-linejoin="round"/>
</svg>
