<svg width="219" height="212" viewBox="0 0 219 212" fill="none" xmlns="http://www.w3.org/2000/svg">
<path d="M168.34 94.8347V0" stroke="#06BAB5" stroke-width="7" stroke-miterlimit="3.8637"/>
<path fill-rule="evenodd" clip-rule="evenodd" d="M141.672 19.3911L154.913 19.3932V33.055C154.913 33.055 154.913 45.7223 144.016 45.7223H143.684H143.352C132.454 45.7223 132.454 33.055 132.454 33.055V19.3932H134.666L141.672 19.3911Z" stroke="#06BAB5" stroke-width="7" stroke-miterlimit="3.8637"/>
<path d="M144.044 57.2448V46.1265" stroke="#06BAB5" stroke-width="7" stroke-miterlimit="3.8637"/>
<path d="M144.044 19.7518V6.91553H167.61" stroke="#06BAB5" stroke-width="7" stroke-miterlimit="3.8637"/>
<path d="M215.436 122.489H89.2251L9.54866 86.5499C3.78667 82.6637 2.26597 74.8418 6.15316 69.0798C8.88898 65.0236 13.2447 62.9667 17.7895 63.5212L99.2932 97.3201H215.436" stroke="#06BAB5" stroke-width="7" stroke-miterlimit="3.8637" stroke-linecap="round"/>
<path d="M24.0195 66.0428C24.0195 66.0428 30.4108 52.9647 41.4391 53.6881C52.4673 54.4115 58.6725 60.6167 60.8427 64.9572C63.014 69.2986 63.2547 81.7737 63.2547 81.7737" stroke="#06BAB5" stroke-width="7" stroke-miterlimit="3.8637"/>
<path d="M98.8079 97.4238L94.3652 122.413" stroke="#06BAB5" stroke-width="7" stroke-miterlimit="3.8637"/>
<path fill-rule="evenodd" clip-rule="evenodd" d="M4.39064 130.316C4.39064 126.095 7.81347 122.672 12.0356 122.672H192.113C196.335 122.672 199.758 126.095 199.758 130.316V132.941C199.758 137.163 196.335 140.585 192.113 140.585H12.0345C7.81242 140.585 4.38965 137.163 4.38965 132.941L4.39064 130.316Z" stroke="#06BAB5" stroke-width="7" stroke-miterlimit="3.8637"/>
<path d="M40.0116 207.632C44.8914 207.632 48.8473 203.676 48.8473 198.797C48.8473 193.917 44.8914 189.961 40.0116 189.961C35.1317 189.961 31.1758 193.917 31.1758 198.797C31.1758 203.676 35.1317 207.632 40.0116 207.632Z" stroke="#06BAB5" stroke-width="7" stroke-miterlimit="3.8637"/>
<path d="M174.502 207.63C179.381 207.63 183.336 203.675 183.336 198.796C183.336 193.916 179.381 189.961 174.502 189.961C169.622 189.961 165.667 193.916 165.667 198.796C165.667 203.675 169.622 207.63 174.502 207.63Z" stroke="#06BAB5" stroke-width="7" stroke-miterlimit="3.8637"/>
<path d="M40.3726 189.644V177.636" stroke="#06BAB5" stroke-width="7" stroke-miterlimit="3.8637"/>
<path d="M48.225 140.369L36.7061 178.097H44.8093L74.6796 140.613" stroke="#06BAB5" stroke-width="7" stroke-miterlimit="3.8637"/>
<path d="M174.113 189.664V177.656" stroke="#06BAB5" stroke-width="7" stroke-miterlimit="3.8637"/>
<path d="M166.741 142.091L177.744 178.123H169.641L141.044 142.976" stroke="#06BAB5" stroke-width="7" stroke-miterlimit="3.8637"/>
<path d="M167.247 141.968L178.448 178.654L174.611 178.653V189.667H173.6V178.653L169.421 178.654L140.673 143.319L141.458 142.681L169.903 177.641H177.082L166.279 142.264L167.247 141.968Z" stroke="#06BAB5" stroke-width="7" stroke-miterlimit="3.8637"/>
<path d="M61.2305 158.017H152.947" stroke="#06BAB5" stroke-width="7" stroke-miterlimit="3.8637"/>
</svg>
