<svg width="173" height="192" viewBox="0 0 173 192" fill="none" xmlns="http://www.w3.org/2000/svg">
<mask id="path-1-inside-1_343_6401" fill="white">
<path d="M127.737 35.7984C133.797 39.5014 139.099 44.7073 144.523 51.6193C148.624 56.8473 152.768 62.6363 156.572 69.0533L156.873 68.9543C164.455 60.8133 159.687 48.1223 157.957 38.3823C156.163 28.2843 157.034 18.7343 158.785 8.71333C144.421 11.7163 135.259 23.9574 127.737 35.7984ZM85.622 77.9283C91.069 77.9283 95.997 80.1373 99.561 83.7083C101.9 86.0513 103.653 88.9804 104.58 92.2554C104.956 93.6914 104.684 94.8193 104.069 95.6653C104.035 96.1273 104.018 96.5933 104.018 97.0633C104.018 107.507 112.484 115.973 122.928 115.973C133.372 115.973 141.838 107.507 141.838 97.0633C141.838 86.6193 133.372 78.1533 122.928 78.1533C114.109 78.1533 106.699 84.1904 104.608 92.3584C103.653 88.9794 101.9 86.0513 99.561 83.7083C104.2 75.6103 112.926 70.1533 122.928 70.1533C130.266 70.1533 136.918 73.0903 141.773 77.8533L149.676 73.1044C146.095 67.0684 142.168 61.5773 138.229 56.5563C125.521 40.3583 114.549 34.9054 86.806 36.9234H86.226C58.471 34.9044 47.331 40.3653 34.629 56.5563C30.667 61.6063 26.717 67.1333 23.119 73.2103L30.047 77.3743C34.853 72.8953 41.301 70.1543 48.39 70.1543C58.372 70.1543 67.084 75.5894 71.729 83.6604C75.29 80.1184 80.199 77.9283 85.622 77.9283ZM66.663 92.2554C64.534 84.1224 57.159 78.1543 48.39 78.1543C37.946 78.1543 29.48 86.6203 29.48 97.0643C29.48 107.508 37.946 115.974 48.39 115.974C58.834 115.974 67.3 107.508 67.3 97.0643C67.3 96.6313 67.285 96.2013 67.257 95.7743C66.567 94.8963 66.257 93.6914 66.663 92.2554ZM91.866 126.822C88.842 126.242 85.653 126.384 85.653 126.384C85.653 126.384 82.471 126.243 79.453 126.822C78.305 127.042 76.271 127.456 75.555 128.563C75.406 132.584 79.308 137.515 85.653 138.418C92.006 137.507 95.885 132.425 95.736 128.411C95.191 127.57 92.635 126.969 91.866 126.822ZM73.125 178.751C74.634 181.295 78.419 183.832 84.413 183.832C91.153 183.832 95.101 180.624 96.159 177.805L95.863 177.482C93.438 174.806 89.144 167.983 85.467 167.847C83.222 167.931 77.7 173.982 73.125 178.751ZM64.377 176.371C65.7082 175.26 67.127 173.8 68.457 172.324C73.337 166.909 78.064 160.388 84.793 159.876C84.94 159.855 85.089 159.843 85.24 159.843L85.465 159.845L85.689 159.843C85.838 159.843 85.986 159.854 86.132 159.875C93.293 160.416 98.004 167.743 103.148 173.279C103.34 173.444 103.517 173.629 103.673 173.836C104.888 175.106 106.133 176.26 107.444 177.189C124.527 189.286 146.046 162.025 114.162 144.809C109.754 142.429 104.815 140.342 99.919 139.017C97.38 142.022 93.779 144.517 89.547 145.739V149.205C89.547 154.538 81.547 154.538 81.547 149.205V145.685C77.322 144.435 73.76 141.946 71.267 138.958C70.459 139.185 69.122 139.582 67.443 140.163C57.069 143.75 42.133 151.311 40.563 163.458C38.546 179.058 54.254 183.623 63.089 177.366C63.525 177.058 63.953 176.725 64.377 176.371ZM12.186 76.5033C-5.268 61.2433 8.99701 42.3723 7.55701 23.5103C6.77601 13.2863 4.836 4.90434 4.836 4.90434C3.047 -2.82366 15.61 0.858331 18.187 1.55833C33.608 5.75033 43.88 19.3723 52.084 32.3763C61.021 28.8733 71.834 27.8793 86.516 28.9243C101.022 27.8923 111.71 28.8503 120.539 32.2513C121.431 30.8893 122.893 28.7103 124.765 26.1163C134.771 12.2433 145.244 0.525331 163.657 0.00233107C166.573 -0.0806689 168.341 2.06234 167.683 4.90434C167.683 4.90434 165.743 13.2873 164.962 23.5103C163.618 41.1133 177.199 63.1393 160.649 76.4603C167.735 90.4113 172.857 107.038 172.857 126.902C172.857 147.636 158.046 164.56 138.397 168.02C136.787 183.666 119.202 194.944 102.402 183.298C98.919 188.735 91.519 191.832 84.412 191.832C77.753 191.832 70.838 189.113 67.127 184.298C51.245 194.964 33.828 183.295 32.485 167.538C31.659 167.321 30.668 167.034 29.553 166.663C11.764 160.747 0 146.827 0 126.902C0.001 107.059 5.111 90.4453 12.186 76.5033ZM15.821 68.9763C15.959 69.0183 16.099 69.0704 16.239 69.1304C20.056 62.6824 24.217 56.8683 28.335 51.6193C33.666 44.8243 38.904 39.6793 44.863 35.9893C44.013 34.7083 42.781 32.8973 41.266 30.7953C33.578 20.1373 27.259 11.5403 13.734 8.71232C17.566 30.6423 14.764 34.3103 11.403 54.9903C10.585 60.0233 12.425 65.2443 15.821 68.9763ZM25.032 83.6933L19.267 80.2294C12.671 93.2604 8.00101 108.619 8.00101 126.902C8.00101 149.549 25.787 157.227 33.224 159.446C35.873 149.606 45.188 139.394 64.829 132.602C65.893 132.234 66.838 131.931 67.628 131.689C66.24 124.681 70.975 117.926 85.653 118.384C86.485 118.358 89.915 118.301 93.372 118.964C102.129 120.643 104.857 126.141 103.636 131.792C104.353 132.015 105.182 132.284 106.099 132.601C125.948 139.465 135.288 149.937 137.799 159.943C143.483 158.564 164.857 151.727 164.857 126.901C164.857 108.566 160.161 93.1724 153.536 80.1174L146.613 84.2773C148.671 88.0803 149.839 92.4353 149.839 97.0623C149.839 111.924 137.791 123.972 122.929 123.972C108.067 123.972 96.019 111.924 96.019 97.0623C96.019 95.6513 96.127 94.2664 96.337 92.9144C94.523 88.7974 90.404 85.9274 85.623 85.9274C80.889 85.9274 76.805 88.7403 74.964 92.7913C75.186 94.1823 75.301 95.6093 75.301 97.0633C75.301 111.925 63.253 123.973 48.391 123.973C33.529 123.973 21.481 111.925 21.481 97.0633C21.48 92.1973 22.772 87.6323 25.032 83.6933ZM122.928 89.8423C126.917 89.8423 130.15 93.0753 130.15 97.0643C130.15 101.053 126.917 104.287 122.928 104.287C118.94 104.287 115.706 101.054 115.706 97.0643C115.706 93.0753 118.94 89.8423 122.928 89.8423ZM48.39 89.8423C52.379 89.8423 55.612 93.0753 55.612 97.0643C55.612 101.053 52.379 104.287 48.39 104.287C44.402 104.287 41.168 101.054 41.168 97.0643C41.168 93.0753 44.402 89.8423 48.39 89.8423Z"/>
</mask>
<path d="M127.737 35.7984L120.984 31.5087L116.619 38.3801L123.566 42.6248L127.737 35.7984ZM144.523 51.6193L150.817 46.6818L150.817 46.6806L144.523 51.6193ZM156.572 69.0533L149.69 73.1328L152.967 78.6606L159.072 76.6528L156.572 69.0533ZM156.873 68.9543L159.373 76.5538L161.326 75.9114L162.727 74.4066L156.873 68.9543ZM157.957 38.3823L165.834 36.9833L165.834 36.983L157.957 38.3823ZM158.785 8.71333L166.666 10.0903L168.696 -1.53174L157.148 0.882631L158.785 8.71333ZM99.561 83.7083L93.8986 89.3596L93.8993 89.3603L99.561 83.7083ZM104.58 92.2554L112.319 90.229L112.299 90.1525L112.278 90.0765L104.58 92.2554ZM104.069 95.6653L97.5981 90.9613L96.2579 92.805L96.0906 95.0782L104.069 95.6653ZM104.608 92.3584L96.9096 94.5341L104.99 123.124L112.358 94.3424L104.608 92.3584ZM141.773 77.8533L136.17 83.5641L140.589 87.8984L145.894 84.7105L141.773 77.8533ZM149.676 73.1044L153.797 79.9615L160.615 75.8641L156.556 69.0225L149.676 73.1044ZM138.229 56.5563L144.523 51.6185L144.523 51.6183L138.229 56.5563ZM86.806 36.9234V44.9234H87.0966L87.3864 44.9023L86.806 36.9234ZM86.226 36.9234L85.6456 44.9023L85.9354 44.9234H86.226V36.9234ZM34.629 56.5563L40.9231 61.4944L40.9232 61.4942L34.629 56.5563ZM23.119 73.2103L16.2351 69.1346L12.1862 75.9731L18.9978 80.0671L23.119 73.2103ZM30.047 77.3743L25.9258 84.2311L31.0919 87.3362L35.5012 83.2268L30.047 77.3743ZM71.729 83.6604L64.7953 87.6508L69.9888 96.6748L77.3707 89.3323L71.729 83.6604ZM66.663 92.2554L74.3612 94.4319L74.9537 92.3362L74.4022 90.2294L66.663 92.2554ZM67.257 95.7743L75.2398 95.2509L75.0777 92.7789L73.547 90.8311L67.257 95.7743ZM91.866 126.822L90.3591 134.679L90.3639 134.68L91.866 126.822ZM85.653 126.384L85.2988 134.377L85.6538 134.392L86.0089 134.376L85.653 126.384ZM79.453 126.822L80.9587 134.679L80.9603 134.679L79.453 126.822ZM75.555 128.563L68.8376 124.219L67.642 126.067L67.5605 128.267L75.555 128.563ZM85.653 138.418L84.5258 146.339L85.6573 146.5L86.7885 146.337L85.653 138.418ZM95.736 128.411L103.73 128.115L103.649 125.911L102.45 124.061L95.736 128.411ZM73.125 178.751L67.3519 173.213L63.1417 177.602L66.2444 182.833L73.125 178.751ZM96.159 177.805L103.649 180.616L105.374 176.02L102.057 172.4L96.159 177.805ZM95.863 177.482L89.935 182.854L89.9499 182.871L89.9649 182.887L95.863 177.482ZM85.467 167.847L85.7627 159.853L85.4653 159.842L85.1679 159.853L85.467 167.847ZM64.377 176.371L59.2498 170.23L59.2498 170.23L64.377 176.371ZM68.457 172.324L74.3998 177.68L68.457 172.324ZM84.793 159.876L85.4 167.853L85.6631 167.833L85.9244 167.796L84.793 159.876ZM85.24 159.843L85.3116 151.844L85.2758 151.843H85.24V159.843ZM85.465 159.845L85.3934 167.845L85.4652 167.846L85.5369 167.845L85.465 159.845ZM85.689 159.843V151.843H85.653L85.6171 151.844L85.689 159.843ZM86.132 159.875L84.993 167.794L85.2602 167.832L85.5293 167.853L86.132 159.875ZM103.148 173.279L97.2874 178.725L97.5932 179.054L97.9338 179.347L103.148 173.279ZM103.673 173.836L97.2841 178.651L97.5672 179.027L97.8924 179.367L103.673 173.836ZM107.444 177.189L102.819 183.717L102.821 183.718L107.444 177.189ZM114.162 144.809L117.963 137.77L117.963 137.77L114.162 144.809ZM99.919 139.017L102.009 131.295L97.0942 129.965L93.8082 133.854L99.919 139.017ZM89.547 145.739L87.3276 138.053L81.547 139.723V145.739H89.547ZM81.547 145.685H89.547V139.709L83.8166 138.014L81.547 145.685ZM71.267 138.958L77.4097 133.833L74.0908 129.855L69.1032 131.256L71.267 138.958ZM67.443 140.163L70.0573 147.724L70.0591 147.724L67.443 140.163ZM40.563 163.458L48.4969 164.484L48.497 164.484L40.563 163.458ZM63.089 177.366L58.4732 170.832L58.4654 170.838L63.089 177.366ZM12.186 76.5033L19.32 80.1236L22.1354 74.5756L17.4516 70.4806L12.186 76.5033ZM7.55701 23.5103L15.5338 22.9013L15.5338 22.901L7.55701 23.5103ZM4.836 4.90434L12.63 3.10043L12.6299 3.10009L4.836 4.90434ZM18.187 1.55833L20.2855 -6.16152L20.2841 -6.16192L18.187 1.55833ZM52.084 32.3763L45.3179 36.6449L48.8465 42.2379L55.0035 39.8246L52.084 32.3763ZM86.516 28.9243L85.948 36.9041L86.5159 36.9446L87.0837 36.9042L86.516 28.9243ZM120.539 32.2513L117.663 39.7166L123.692 42.0389L127.231 36.6343L120.539 32.2513ZM124.765 26.1163L131.252 30.7979L131.253 30.7962L124.765 26.1163ZM163.657 0.00233107L163.884 7.99911L163.885 7.99909L163.657 0.00233107ZM167.683 4.90434L159.889 3.09986L159.889 3.10066L167.683 4.90434ZM164.962 23.5103L156.985 22.9009L156.985 22.9013L164.962 23.5103ZM160.649 76.4603L155.633 70.2283L150.578 74.2973L153.516 80.0832L160.649 76.4603ZM138.397 168.02L137.01 160.142L131.058 161.19L130.439 167.201L138.397 168.02ZM102.402 183.298L106.96 176.724L100.141 171.997L95.6657 178.983L102.402 183.298ZM67.127 184.298L73.4634 179.415L68.8884 173.479L62.6668 177.657L67.127 184.298ZM32.485 167.538L40.4561 166.859L39.9767 161.235L34.5177 159.801L32.485 167.538ZM29.553 166.663L32.0787 159.073L32.0776 159.072L29.553 166.663ZM0 126.902L-8 126.902V126.902H0ZM15.821 68.9763L9.90405 74.3606L11.3857 75.9888L13.4917 76.6297L15.821 68.9763ZM16.239 69.1304L13.0876 76.4835L19.5446 79.2508L23.1232 73.2056L16.239 69.1304ZM28.335 51.6193L22.0409 46.6813L22.0408 46.6814L28.335 51.6193ZM44.863 35.9893L49.0747 42.7909L56.0933 38.4448L51.529 31.5661L44.863 35.9893ZM41.266 30.7953L47.756 26.1177L47.7542 26.1152L41.266 30.7953ZM13.734 8.71232L15.3713 0.881671L3.8225 -1.53312L5.85338 10.0894L13.734 8.71232ZM11.403 54.9903L19.2994 56.2737L19.2994 56.2737L11.403 54.9903ZM25.032 83.6933L31.971 87.6746L35.8728 80.8741L29.1523 76.836L25.032 83.6933ZM19.267 80.2294L23.3873 73.372L16.0141 68.9417L12.1293 76.6164L19.267 80.2294ZM33.224 159.446L30.9367 167.112L38.8125 169.462L40.949 161.526L33.224 159.446ZM64.829 132.602L67.4435 140.163L67.4439 140.163L64.829 132.602ZM67.628 131.689L69.9712 139.339L76.8793 137.222L75.4756 130.135L67.628 131.689ZM85.653 118.384L85.4035 126.38L85.6532 126.388L85.9029 126.38L85.653 118.384ZM93.372 118.964L91.8652 126.821L91.8656 126.821L93.372 118.964ZM103.636 131.792L95.8164 130.103L94.2705 137.258L101.26 139.431L103.636 131.792ZM106.099 132.601L108.714 125.041L108.713 125.04L106.099 132.601ZM137.799 159.943L130.04 161.891L131.972 169.589L139.685 167.718L137.799 159.943ZM153.536 80.1174L160.67 76.4971L156.781 68.8341L149.416 73.2601L153.536 80.1174ZM146.613 84.2773L142.493 77.4201L135.937 81.359L139.577 88.0848L146.613 84.2773ZM96.337 92.9144L104.242 94.1422L104.601 91.83L103.658 89.6887L96.337 92.9144ZM74.964 92.7913L67.6808 89.4815L66.6844 91.674L67.064 94.0522L74.964 92.7913ZM21.481 97.0633L29.481 97.0633L29.481 97.0617L21.481 97.0633ZM123.566 42.6248C128.528 45.657 133.147 50.0815 138.229 56.558L150.817 46.6806C145.051 39.3332 139.066 33.3457 131.908 28.9719L123.566 42.6248ZM138.229 56.5569C142.177 61.5905 146.108 67.0894 149.69 73.1328L163.454 64.9739C159.428 58.1833 155.071 52.1041 150.817 46.6818L138.229 56.5569ZM159.072 76.6528L159.373 76.5538L154.373 61.3548L154.072 61.4538L159.072 76.6528ZM162.727 74.4066C168.754 67.9354 169.422 59.975 168.878 53.5892C168.604 50.3724 167.997 47.2231 167.408 44.4581C166.78 41.5047 166.235 39.2453 165.834 36.9833L150.08 39.7814C150.544 42.3894 151.244 45.3688 151.759 47.7888C152.314 50.3971 152.749 52.7557 152.936 54.9467C153.313 59.3766 152.574 61.8322 151.019 63.502L162.727 74.4066ZM165.834 36.983C164.277 28.2193 164.981 19.7301 166.666 10.0903L150.904 7.33633C149.087 17.7385 148.049 28.3494 150.08 39.7817L165.834 36.983ZM157.148 0.882631C139.148 4.64567 128.412 19.8165 120.984 31.5087L134.49 40.088C142.106 28.0982 149.694 18.787 160.422 16.544L157.148 0.882631ZM85.622 85.9283C88.8603 85.9283 91.7748 87.2317 93.8986 89.3596L105.223 78.057C100.219 73.043 93.2776 69.9283 85.622 69.9283V85.9283ZM93.8993 89.3603C95.2975 90.7609 96.3356 92.5023 96.8824 94.4342L112.278 90.0765C110.97 85.4585 108.502 81.3417 105.223 78.0563L93.8993 89.3603ZM96.8409 94.2818C96.7755 94.0321 96.6933 93.5129 96.8126 92.8214C96.9338 92.1187 97.2226 91.4779 97.5981 90.9613L110.54 100.369C112.67 97.4389 113.256 93.8065 112.319 90.229L96.8409 94.2818ZM96.0906 95.0782C96.042 95.7384 96.018 96.4003 96.018 97.0633H112.018C112.018 96.7863 112.028 96.5162 112.047 96.2525L96.0906 95.0782ZM96.018 97.0633C96.018 111.926 108.066 123.973 122.928 123.973V107.973C116.902 107.973 112.018 103.089 112.018 97.0633H96.018ZM122.928 123.973C137.79 123.973 149.838 111.926 149.838 97.0633H133.838C133.838 103.089 128.954 107.973 122.928 107.973V123.973ZM149.838 97.0633C149.838 82.2011 137.79 70.1533 122.928 70.1533V86.1533C128.954 86.1533 133.838 91.0376 133.838 97.0633H149.838ZM122.928 70.1533C110.368 70.1533 99.8333 78.7517 96.8579 90.3743L112.358 94.3424C113.565 89.629 117.85 86.1533 122.928 86.1533V70.1533ZM112.306 90.1826C110.977 85.4789 108.518 81.3571 105.223 78.0563L93.8993 89.3603C95.2821 90.7455 96.3289 92.4798 96.9096 94.5341L112.306 90.1826ZM106.503 87.6849C109.775 81.9725 115.91 78.1533 122.928 78.1533V62.1533C109.942 62.1533 98.625 69.2481 92.6193 79.7317L106.503 87.6849ZM122.928 78.1533C128.087 78.1533 132.75 80.2088 136.17 83.5641L147.375 72.1426C141.086 65.9719 132.445 62.1533 122.928 62.1533V78.1533ZM145.894 84.7105L153.797 79.9615L145.555 66.2472L137.652 70.9962L145.894 84.7105ZM156.556 69.0225C152.754 62.6137 148.614 56.8332 144.523 51.6185L131.935 61.4942C135.722 66.3215 139.436 71.523 142.796 77.1862L156.556 69.0225ZM144.523 51.6183C137.756 42.9926 130.785 36.3643 121.14 32.4863C111.669 28.6787 100.553 27.9023 86.2256 28.9444L87.3864 44.9023C100.802 43.9264 109.043 44.8675 115.171 47.3314C121.125 49.7249 125.994 53.9221 131.935 61.4944L144.523 51.6183ZM86.806 28.9234H86.226V44.9234H86.806V28.9234ZM86.8064 28.9444C72.4686 27.9014 61.316 28.6816 51.8116 32.4833C42.1286 36.3563 35.1141 42.9769 28.3348 51.6185L40.9232 61.4942C46.8459 53.9448 51.7524 49.7394 57.7537 47.3389C63.9335 44.8671 72.2284 43.9263 85.6456 44.9023L86.8064 28.9444ZM28.3349 51.6183C24.2197 56.8636 20.0554 62.6821 16.2351 69.1346L30.0029 77.2861C33.3786 71.5845 37.1143 66.3491 40.9231 61.4944L28.3349 51.6183ZM18.9978 80.0671L25.9258 84.2311L34.1682 70.5175L27.2402 66.3535L18.9978 80.0671ZM35.5012 83.2268C38.8852 80.0731 43.4044 78.1543 48.39 78.1543V62.1543C39.1976 62.1543 30.8208 65.7176 24.5927 71.5219L35.5012 83.2268ZM48.39 78.1543C55.3943 78.1543 61.5193 81.9585 64.7953 87.6508L78.6627 79.6699C72.6487 69.2202 61.3497 62.1543 48.39 62.1543V78.1543ZM77.3707 89.3323C79.4938 87.2206 82.398 85.9283 85.622 85.9283V69.9283C78 69.9283 71.0862 73.0162 66.0873 77.9884L77.3707 89.3323ZM74.4022 90.2294C71.3745 78.6632 60.8853 70.1543 48.39 70.1543V86.1543C53.4327 86.1543 57.6935 89.5815 58.9238 94.2813L74.4022 90.2294ZM48.39 70.1543C33.5277 70.1543 21.48 82.2021 21.48 97.0643H37.48C37.48 91.0386 42.3643 86.1543 48.39 86.1543V70.1543ZM21.48 97.0643C21.48 111.927 33.5277 123.974 48.39 123.974V107.974C42.3643 107.974 37.48 103.09 37.48 97.0643H21.48ZM48.39 123.974C63.2523 123.974 75.3 111.927 75.3 97.0643H59.3C59.3 103.09 54.4157 107.974 48.39 107.974V123.974ZM75.3 97.0643C75.3 96.4465 75.2786 95.8417 75.2398 95.2509L59.2741 96.2978C59.2914 96.561 59.3 96.8161 59.3 97.0643H75.3ZM73.547 90.8311C73.9527 91.3473 74.2676 91.9951 74.4064 92.7205C74.546 93.4496 74.4688 94.0513 74.3612 94.4319L58.9648 90.0788C57.883 93.905 58.6506 97.7701 60.9669 100.718L73.547 90.8311ZM93.3729 118.966C91.2913 118.566 89.2787 118.434 87.8772 118.39C87.1547 118.367 86.5433 118.366 86.1003 118.372C85.8779 118.375 85.6954 118.379 85.5597 118.383C85.4918 118.385 85.4354 118.387 85.3914 118.388C85.3694 118.389 85.3505 118.39 85.3347 118.391C85.3269 118.391 85.3198 118.391 85.3135 118.392C85.3104 118.392 85.3074 118.392 85.3047 118.392C85.3033 118.392 85.302 118.392 85.3007 118.392C85.3001 118.392 85.2992 118.392 85.2989 118.392C85.298 118.392 85.2971 118.392 85.653 126.384C86.0089 134.376 86.008 134.376 86.0072 134.377C86.0069 134.377 86.0061 134.377 86.0055 134.377C86.0045 134.377 86.0034 134.377 86.0025 134.377C86.0005 134.377 85.9987 134.377 85.9971 134.377C85.9939 134.377 85.9915 134.377 85.9897 134.377C85.9862 134.377 85.9856 134.377 85.9877 134.377C85.9918 134.377 86.0069 134.377 86.0321 134.376C86.0827 134.374 86.1729 134.372 86.2967 134.371C86.5461 134.368 86.921 134.368 87.3738 134.382C88.3228 134.412 89.4167 134.498 90.3591 134.679L93.3729 118.966ZM85.653 126.384C86.0072 118.392 86.0063 118.392 86.0054 118.392C86.0051 118.392 86.0042 118.392 86.0035 118.392C86.0023 118.392 86.0009 118.392 85.9996 118.392C85.9968 118.392 85.9939 118.392 85.9908 118.391C85.9845 118.391 85.9774 118.391 85.9696 118.391C85.9538 118.39 85.9349 118.389 85.9129 118.388C85.869 118.387 85.8127 118.385 85.7449 118.383C85.6095 118.379 85.4273 118.375 85.2053 118.372C84.763 118.367 84.1528 118.367 83.4316 118.39C82.0327 118.435 80.0238 118.567 77.9457 118.966L80.9603 134.679C81.9002 134.499 82.9913 134.412 83.9378 134.382C84.3894 134.368 84.7633 134.368 85.012 134.371C85.1355 134.372 85.2254 134.375 85.2758 134.376C85.3009 134.377 85.3159 134.377 85.3201 134.377C85.3222 134.377 85.3215 134.377 85.318 134.377C85.3162 134.377 85.3138 134.377 85.3106 134.377C85.309 134.377 85.3072 134.377 85.3052 134.377C85.3043 134.377 85.3032 134.377 85.3022 134.377C85.3016 134.377 85.3008 134.377 85.3005 134.377C85.2997 134.377 85.2988 134.377 85.653 126.384ZM77.9473 118.965C77.3859 119.073 76.0184 119.33 74.6104 119.841C73.4888 120.248 70.6761 121.376 68.8376 124.219L82.2724 132.908C81.6485 133.873 80.9431 134.385 80.6165 134.594C80.435 134.71 80.2929 134.782 80.2116 134.82C80.1287 134.859 80.0794 134.877 80.0736 134.879C80.0721 134.88 80.1467 134.854 80.3243 134.811C80.4991 134.769 80.6907 134.731 80.9587 134.679L77.9473 118.965ZM67.5605 128.267C67.2281 137.238 75.0354 144.988 84.5258 146.339L86.7802 130.498C85.4183 130.304 84.5004 129.712 83.9779 129.16C83.3517 128.498 83.5718 128.258 83.5495 128.86L67.5605 128.267ZM86.7885 146.337C96.4483 144.952 104.058 136.929 103.73 128.115L87.7415 128.708C87.7293 128.381 87.8022 128.296 87.7379 128.449C87.6788 128.591 87.5367 128.847 87.2608 129.145C86.7201 129.73 85.8159 130.313 84.5174 130.499L86.7885 146.337ZM102.45 124.061C101.185 122.109 99.4409 121.129 98.8046 120.786C97.9376 120.319 97.0872 119.996 96.4656 119.784C95.2089 119.356 93.9958 119.085 93.3681 118.965L90.3639 134.68C90.397 134.686 90.5474 134.717 90.756 134.77C90.965 134.823 91.1583 134.879 91.3043 134.929C91.4861 134.991 91.4249 134.985 91.2144 134.871C91.1018 134.811 90.8347 134.66 90.4981 134.395C90.1865 134.15 89.5827 133.627 89.0224 132.762L102.45 124.061ZM66.2444 182.833C69.4921 188.308 76.2315 191.832 84.413 191.832V175.832C80.6065 175.832 79.7759 174.283 80.0056 174.67L66.2444 182.833ZM84.413 191.832C93.4763 191.832 101.1 187.407 103.649 180.616L88.6691 174.994C88.9022 174.373 89.0618 174.568 88.3595 174.981C87.7492 175.34 86.5044 175.832 84.413 175.832V191.832ZM102.057 172.4L101.761 172.077L89.9649 182.887L90.2609 183.21L102.057 172.4ZM101.791 172.11C101.421 171.702 100.914 171.056 100.02 169.92C99.2242 168.909 98.2059 167.621 97.1028 166.385C96.0248 165.177 94.6377 163.757 93.0255 162.577C91.5191 161.475 88.9989 159.973 85.7627 159.853L85.1713 175.842C83.7735 175.79 83.169 175.191 83.5777 175.49C83.8805 175.712 84.408 176.19 85.1662 177.04C85.8993 177.861 86.639 178.789 87.4454 179.814C88.1538 180.714 89.0925 181.925 89.935 182.854L101.791 172.11ZM85.1679 159.853C83.2988 159.923 81.809 160.546 80.9725 160.954C80.0431 161.408 79.2184 161.948 78.5505 162.431C77.2167 163.394 75.8722 164.592 74.6624 165.74C72.2497 168.03 69.5101 170.963 67.3519 173.213L78.8981 184.29C81.3149 181.77 83.6238 179.294 85.677 177.345C86.7003 176.374 87.4431 175.745 87.9191 175.401C88.1561 175.23 88.1668 175.247 87.987 175.335C87.9001 175.377 87.0739 175.793 85.7661 175.842L85.1679 159.853ZM69.5042 182.512C71.2643 181.043 72.9767 179.259 74.3998 177.68L62.5142 166.969C61.2772 168.341 60.1521 169.477 59.2498 170.23L69.5042 182.512ZM74.3998 177.68C77.2696 174.496 79.0644 172.206 81.2853 170.206C83.3322 168.363 84.575 167.916 85.4 167.853L84.186 151.899C78.282 152.349 73.7968 155.418 70.578 158.317C67.5331 161.059 64.5244 164.738 62.5142 166.969L74.3998 177.68ZM85.9244 167.796C85.7444 167.822 85.5129 167.843 85.24 167.843V151.843C84.6651 151.843 84.1356 151.889 83.6616 151.957L85.9244 167.796ZM85.1684 167.843L85.3934 167.845L85.5366 151.846L85.3116 151.844L85.1684 167.843ZM85.5369 167.845L85.7609 167.843L85.6171 151.844L85.3931 151.846L85.5369 167.845ZM85.689 167.843C85.4437 167.843 85.2109 167.825 84.993 167.794L87.271 151.957C86.761 151.884 86.2323 151.843 85.689 151.843V167.843ZM85.5293 167.853C86.392 167.918 87.6822 168.401 89.8737 170.492C90.9401 171.51 92.0274 172.718 93.2798 174.164C94.4522 175.517 95.8755 177.205 97.2874 178.725L109.009 167.834C107.848 166.585 106.754 165.282 105.372 163.687C104.071 162.185 102.569 160.49 100.919 158.916C97.6788 155.825 93.0329 152.374 86.7347 151.898L85.5293 167.853ZM97.9338 179.347C97.7268 179.169 97.5013 178.939 97.2841 178.651L110.062 169.022C109.533 168.319 108.953 167.72 108.362 167.212L97.9338 179.347ZM97.8924 179.367C99.2963 180.834 100.935 182.382 102.819 183.717L112.069 170.662C111.331 170.139 110.48 169.379 109.454 168.306L97.8924 179.367ZM102.821 183.718C115.726 192.857 130.902 187.019 136.396 175.415C139.192 169.509 139.403 162.389 136.235 155.493C133.115 148.702 126.988 142.643 117.963 137.77L110.361 151.849C117.278 155.584 120.417 159.388 121.696 162.172C122.927 164.852 122.669 167.019 121.935 168.568C120.37 171.875 116.245 173.619 112.067 170.661L102.821 183.718ZM117.963 137.77C113.112 135.151 107.599 132.808 102.009 131.295L97.8292 146.74C102.031 147.877 106.396 149.708 110.361 151.849L117.963 137.77ZM93.8082 133.854C92.231 135.721 89.958 137.294 87.3276 138.053L91.7663 153.425C97.6 151.741 102.529 148.324 106.03 144.181L93.8082 133.854ZM81.547 145.739V149.205H97.547V145.739H81.547ZM81.547 149.205C81.547 148.368 81.9407 147.151 82.9823 146.226C83.8765 145.431 84.8426 145.205 85.547 145.205C86.2514 145.205 87.2175 145.431 88.1117 146.226C89.1532 147.151 89.547 148.368 89.547 149.205H73.547C73.547 152.71 74.9407 155.926 77.4823 158.185C79.8765 160.313 82.8426 161.205 85.547 161.205C88.2514 161.205 91.2175 160.313 93.6117 158.185C96.1532 155.926 97.547 152.71 97.547 149.205H81.547ZM89.547 149.205V145.685H73.547V149.205H89.547ZM83.8166 138.014C81.1675 137.23 78.9334 135.659 77.4097 133.833L65.1243 144.083C68.5866 148.233 73.4765 151.64 79.2774 153.357L83.8166 138.014ZM69.1032 131.256C68.1702 131.519 66.6797 131.962 64.8269 132.603L70.0591 147.724C71.5643 147.203 72.7478 146.852 73.4308 146.66L69.1032 131.256ZM64.8287 132.603C59.231 134.538 52.0745 137.646 45.9515 142.164C39.9298 146.607 33.8163 153.246 32.629 162.433L48.497 164.484C48.8796 161.523 51.0192 158.309 55.4515 155.038C59.7825 151.842 65.281 149.376 70.0573 147.724L64.8287 132.603ZM32.629 162.433C31.1993 173.49 36.2547 181.936 44.2762 185.812C51.6148 189.358 60.8612 188.747 67.7126 183.895L58.4654 170.838C56.4817 172.243 53.4566 172.478 51.2368 171.405C50.2487 170.928 49.5309 170.246 49.0703 169.37C48.6152 168.504 48.1727 166.992 48.4969 164.484L32.629 162.433ZM67.7048 183.9C68.3439 183.449 68.943 182.981 69.5042 182.512L59.2498 170.23C58.963 170.47 58.7061 170.668 58.4732 170.832L67.7048 183.9ZM17.4516 70.4806C14.2 67.6377 12.7248 64.9367 12.0239 62.3474C11.279 59.5959 11.2596 56.4159 11.7953 52.4208C12.3682 48.1479 13.3258 44.3221 14.2998 39.0573C15.1997 34.1931 15.9737 28.6636 15.5338 22.9013L-0.419781 24.1193C-0.139696 27.788 -0.608826 31.6907 -1.43319 36.1466C-2.18343 40.2019 -3.43122 45.5843 -4.06278 50.2944C-4.73158 55.2822 -4.95462 60.8602 -3.42024 66.5283C-1.84193 72.3586 1.44502 77.739 6.92036 82.526L17.4516 70.4806ZM15.5338 22.901C15.1189 17.4696 14.3993 12.5576 13.7869 9.01183C13.4797 7.23289 13.1968 5.78277 12.988 4.76529C12.8835 4.2562 12.7973 3.85442 12.7356 3.57286C12.7048 3.43205 12.6801 3.32122 12.6622 3.24196C12.6533 3.20233 12.6461 3.17059 12.6406 3.14694C12.6379 3.13511 12.6357 3.12531 12.6339 3.11755C12.633 3.11367 12.6322 3.1103 12.6316 3.10744C12.6313 3.10602 12.631 3.10472 12.6307 3.10355C12.6306 3.10296 12.6304 3.10218 12.6303 3.10189C12.6301 3.10114 12.63 3.10043 4.836 4.90434C-2.95797 6.70825 -2.95812 6.7076 -2.95826 6.70698C-2.9583 6.70681 -2.95844 6.70623 -2.95851 6.7059C-2.95866 6.70524 -2.95879 6.70471 -2.95888 6.7043C-2.95907 6.70348 -2.95914 6.70317 -2.9591 6.70336C-2.95901 6.70374 -2.95847 6.70611 -2.95747 6.71045C-2.95549 6.71914 -2.95171 6.73572 -2.94625 6.75997C-2.93531 6.8085 -2.9176 6.88773 -2.89387 6.99608C-2.84639 7.21285 -2.77489 7.54578 -2.6853 7.98226C-2.50598 8.85591 -2.25506 10.1403 -1.97967 11.7348C-1.42679 14.9361 -0.785856 19.327 -0.419754 24.1197L15.5338 22.901ZM12.6299 3.10009C12.6119 3.02255 12.7775 3.651 12.4977 4.65695C12.181 5.79576 11.4731 6.76662 10.6293 7.40449C9.90383 7.95295 9.32279 8.07624 9.27705 8.08608C9.21066 8.10036 9.35253 8.06474 9.77053 8.07016C10.6305 8.08131 11.8015 8.24728 13.0917 8.52274C14.3397 8.78921 15.3634 9.08124 16.0899 9.27858L20.2841 -6.16192C19.2918 -6.43144 14.441 -7.87063 9.97795 -7.92849C7.94877 -7.9548 4.16448 -7.76576 0.980593 -5.35881C-0.829643 -3.99032 -2.2456 -2.04471 -2.91705 0.369196C-3.55154 2.65024 -3.38719 4.85412 -2.95789 6.70859L12.6299 3.10009ZM16.0884 9.27818C28.2326 12.5794 37.0792 23.5858 45.3179 36.6449L58.85 28.1077C50.6808 15.1588 38.9833 -1.07876 20.2855 -6.16152L16.0884 9.27818ZM55.0035 39.8246C62.3535 36.9436 71.8039 35.8974 85.948 36.9041L87.084 20.9445C71.8641 19.8612 59.6884 20.803 49.1645 24.9281L55.0035 39.8246ZM87.0837 36.9042C101.061 35.9097 110.405 36.9206 117.663 39.7166L123.415 24.786C113.015 20.7801 100.983 19.8749 85.9483 20.9445L87.0837 36.9042ZM127.231 36.6343C128.072 35.3502 129.465 33.2738 131.252 30.7979L118.278 21.4348C116.321 24.1469 114.79 26.4285 113.847 27.8683L127.231 36.6343ZM131.253 30.7962C141.153 17.071 149.6 8.40482 163.884 7.99911L163.43 -7.99444C140.888 -7.35416 128.389 7.41569 118.277 21.4365L131.253 30.7962ZM163.885 7.99909C163.305 8.01559 161.934 7.77856 160.831 6.43805C159.724 5.09146 159.754 3.68441 159.889 3.09986L175.477 6.70882C176.27 3.28227 175.745 -0.617288 173.189 -3.72513C170.638 -6.82689 166.925 -8.09393 163.429 -7.99443L163.885 7.99909ZM167.683 4.90434C159.889 3.10066 159.889 3.10138 159.889 3.10212C159.889 3.10241 159.888 3.10319 159.888 3.10378C159.888 3.10495 159.888 3.10625 159.887 3.10767C159.887 3.11053 159.886 3.11389 159.885 3.11777C159.883 3.12553 159.881 3.13534 159.878 3.14716C159.873 3.17082 159.866 3.20256 159.857 3.24219C159.839 3.32144 159.814 3.43228 159.783 3.5731C159.722 3.85467 159.635 4.25647 159.531 4.76558C159.322 5.78311 159.039 7.2333 158.732 9.01227C158.12 12.5581 157.4 17.4701 156.985 22.9009L172.939 24.1197C173.305 19.3276 173.946 14.9366 174.499 11.7351C174.774 10.1405 175.025 8.856 175.204 7.98225C175.294 7.54572 175.365 7.21274 175.413 6.99593C175.437 6.88756 175.454 6.80831 175.465 6.75977C175.471 6.73551 175.475 6.71893 175.477 6.71024C175.477 6.70589 175.478 6.70351 175.478 6.70314C175.478 6.70295 175.478 6.70326 175.478 6.70407C175.478 6.70448 175.478 6.70501 175.478 6.70567C175.477 6.706 175.477 6.70658 175.477 6.70675C175.477 6.70737 175.477 6.70802 167.683 4.90434ZM156.985 22.9013C156.57 28.3428 157.32 33.8354 158.167 38.7072C159.078 43.9462 160.018 48.1251 160.568 52.5725C161.613 61.0278 160.624 66.2106 155.633 70.2283L165.665 82.6924C177.223 73.3891 177.719 60.8984 176.447 50.6097C175.839 45.685 174.671 40.2244 173.93 35.9664C173.126 31.3411 172.682 27.4793 172.939 24.1194L156.985 22.9013ZM153.516 80.0832C160.124 93.093 164.857 108.486 164.857 126.902H180.857C180.857 105.591 175.346 87.7297 167.782 72.8375L153.516 80.0832ZM164.857 126.902C164.857 143.676 152.911 157.341 137.01 160.142L139.784 175.899C163.181 171.779 180.857 151.597 180.857 126.902H164.857ZM130.439 167.201C129.916 172.283 126.788 176.622 122.543 178.726C118.566 180.697 113.069 180.959 106.96 176.724L97.8443 189.873C108.535 197.284 120.231 197.729 129.648 193.062C138.799 188.527 145.268 179.404 146.355 168.839L130.439 167.201ZM95.6657 178.983C94.0883 181.445 89.7104 183.832 84.412 183.832V199.832C93.3276 199.832 103.75 196.025 109.138 187.614L95.6657 178.983ZM84.412 183.832C79.5265 183.832 75.2746 181.765 73.4634 179.415L60.7905 189.182C66.4013 196.462 75.9795 199.832 84.412 199.832V183.832ZM62.6668 177.657C57.2519 181.294 52.128 180.957 48.1881 178.806C43.9897 176.513 40.8952 172.011 40.4561 166.859L24.5139 168.218C25.4178 178.823 31.7033 188.034 40.5196 192.848C49.5944 197.804 61.12 197.969 71.5871 190.94L62.6668 177.657ZM34.5177 159.801C33.8461 159.624 33.0201 159.386 32.0787 159.073L27.0272 174.254C28.3158 174.683 29.4719 175.018 30.4523 175.276L34.5177 159.801ZM32.0776 159.072C17.1615 154.112 8 142.982 8 126.902H-8C-8 150.673 6.36649 167.383 27.0284 174.255L32.0776 159.072ZM8 126.903C8.00093 108.505 12.7228 93.124 19.32 80.1236L5.052 72.8831C-2.50081 87.7667 -7.99893 105.613 -8 126.902L8 126.903ZM13.4917 76.6297C13.3152 76.576 13.1799 76.5231 13.0876 76.4835L19.3903 61.7772C19.0181 61.6177 18.6028 61.4607 18.1503 61.3229L13.4917 76.6297ZM23.1232 73.2056C26.7177 67.1335 30.6642 61.6112 34.6292 56.5573L22.0408 46.6814C17.7697 52.1255 13.3943 58.2312 9.35476 65.0551L23.1232 73.2056ZM34.6291 56.5574C39.6148 50.2025 44.1828 45.8202 49.0747 42.7909L40.6513 29.1878C33.6252 33.5385 27.7172 39.4462 22.0409 46.6813L34.6291 56.5574ZM51.529 31.5661C50.6319 30.2142 49.341 28.3168 47.756 26.1177L34.776 35.4729C36.221 37.4778 37.3941 39.2024 38.197 40.4125L51.529 31.5661ZM47.7542 26.1152C40.1882 15.6264 32.2667 4.41439 15.3713 0.881671L12.0966 16.543C22.2513 18.6663 26.9678 24.6483 34.7778 35.4755L47.7542 26.1152ZM5.85338 10.0894C7.69169 20.6098 7.84982 26.2279 7.30777 31.5022C7.02418 34.2617 6.5352 37.0568 5.8616 40.6415C5.19712 44.1778 4.36699 48.413 3.50659 53.707L19.2994 56.2737C20.1195 51.2277 20.9 47.2494 21.5864 43.5963C22.2637 39.9918 22.8659 36.6217 23.2239 33.1379C23.9651 25.9258 23.6083 18.7449 21.6146 7.33528L5.85338 10.0894ZM3.5066 53.707C2.24846 61.448 5.08211 69.0615 9.90405 74.3606L21.7379 63.5921C19.7679 61.4271 18.9215 58.5986 19.2994 56.2737L3.5066 53.707ZM29.1523 76.836L23.3873 73.372L15.1467 87.0867L20.9116 90.5507L29.1523 76.836ZM12.1293 76.6164C5.0545 90.5933 0.00100708 107.183 0.00100708 126.902H16.001C16.001 110.056 20.2875 95.9274 26.4047 83.8423L12.1293 76.6164ZM0.00100708 126.902C0.00100708 140.62 5.50165 150.265 12.3593 156.678C18.9888 162.878 26.5972 165.818 30.9367 167.112L35.5113 151.78C32.4138 150.856 27.4107 148.847 23.288 144.992C19.3934 141.35 16.001 135.831 16.001 126.902H0.00100708ZM40.949 161.526C42.6647 155.153 49.2696 146.448 67.4435 140.163L62.2144 125.042C41.1064 132.341 29.0813 144.06 25.499 157.367L40.949 161.526ZM67.4439 140.163C68.4072 139.83 69.2609 139.556 69.9712 139.339L65.2848 124.04C64.4151 124.307 63.3787 124.639 62.214 125.042L67.4439 140.163ZM75.4756 130.135C75.241 128.951 75.5371 128.563 75.9054 128.239C76.6116 127.616 79.0985 126.184 85.4035 126.38L85.9025 110.388C77.5295 110.127 70.3099 111.843 65.3261 116.235C60.0044 120.926 58.6269 127.42 59.7804 133.244L75.4756 130.135ZM85.9029 126.38C86.5421 126.36 89.2772 126.325 91.8652 126.821L94.8788 111.108C90.5528 110.278 86.4278 110.356 85.4031 110.388L85.9029 126.38ZM91.8656 126.821C94.8434 127.392 95.6134 128.366 95.7194 128.516C95.7995 128.629 96.0509 129.018 95.8164 130.103L111.456 133.482C112.442 128.916 111.94 123.731 108.772 119.262C105.63 114.83 100.658 112.216 94.8784 111.107L91.8656 126.821ZM101.26 139.431C101.905 139.632 102.654 139.875 103.485 140.162L108.713 125.04C107.71 124.694 106.801 124.399 106.012 124.153L101.26 139.431ZM103.484 140.162C121.823 146.504 128.415 155.419 130.04 161.891L145.558 157.996C142.16 144.456 130.073 132.427 108.714 125.041L103.484 140.162ZM139.685 167.718C143.084 166.893 151.169 164.464 158.545 158.391C166.204 152.084 172.857 142 172.857 126.901H156.857C156.857 136.629 152.823 142.376 148.374 146.039C143.642 149.936 138.198 151.614 135.913 152.169L139.685 167.718ZM172.857 126.901C172.857 107.125 167.775 90.4985 160.67 76.4971L146.402 83.7376C152.547 95.8462 156.857 110.007 156.857 126.901H172.857ZM149.416 73.2601L142.493 77.4201L150.733 91.1346L157.656 86.9746L149.416 73.2601ZM139.577 88.0848C141.018 90.7471 141.839 93.7971 141.839 97.0623H157.839C157.839 91.0736 156.324 85.4136 153.649 80.4699L139.577 88.0848ZM141.839 97.0623C141.839 107.506 133.373 115.972 122.929 115.972V131.972C142.209 131.972 157.839 116.343 157.839 97.0623H141.839ZM122.929 115.972C112.485 115.972 104.019 107.506 104.019 97.0623H88.019C88.019 116.343 103.649 131.972 122.929 131.972V115.972ZM104.019 97.0623C104.019 96.0603 104.096 95.0859 104.242 94.1422L88.4318 91.6865C88.1584 93.4468 88.019 95.2423 88.019 97.0623H104.019ZM103.658 89.6887C100.61 82.7713 93.684 77.9274 85.623 77.9274V93.9274C87.124 93.9274 88.436 94.8234 89.0161 96.14L103.658 89.6887ZM85.623 77.9274C77.6417 77.9274 70.7737 82.6756 67.6808 89.4815L82.2472 96.1012C82.8362 94.805 84.1363 93.9274 85.623 93.9274V77.9274ZM67.064 94.0522C67.2194 95.0264 67.301 96.0318 67.301 97.0633H83.301C83.301 95.1869 83.1525 93.3383 82.864 91.5305L67.064 94.0522ZM67.301 97.0633C67.301 107.507 58.8347 115.973 48.391 115.973V131.973C67.6713 131.973 83.301 116.344 83.301 97.0633H67.301ZM48.391 115.973C37.9473 115.973 29.481 107.507 29.481 97.0633H13.481C13.481 116.344 29.1107 131.973 48.391 131.973V115.973ZM29.481 97.0617C29.4803 93.6305 30.3877 90.4341 31.971 87.6746L18.093 79.7121C15.1563 84.8305 13.4797 90.7642 13.481 97.065L29.481 97.0617ZM122.928 97.8423C122.499 97.8423 122.15 97.4936 122.15 97.0643H138.15C138.15 88.6571 131.335 81.8423 122.928 81.8423V97.8423ZM122.15 97.0643C122.15 96.6365 122.497 96.2873 122.928 96.2873V112.287C131.337 112.287 138.15 105.47 138.15 97.0643H122.15ZM122.928 96.2873C123.358 96.2873 123.706 96.6361 123.706 97.0643H107.706C107.706 105.473 114.522 112.287 122.928 112.287V96.2873ZM123.706 97.0643C123.706 97.4943 123.358 97.8423 122.928 97.8423V81.8423C114.522 81.8423 107.706 88.6564 107.706 97.0643H123.706ZM48.39 97.8423C47.9607 97.8423 47.612 97.4936 47.612 97.0643H63.612C63.612 88.6571 56.7973 81.8423 48.39 81.8423V97.8423ZM47.612 97.0643C47.612 96.6365 47.9593 96.2873 48.39 96.2873V112.287C56.7987 112.287 63.612 105.47 63.612 97.0643H47.612ZM48.39 96.2873C48.8203 96.2873 49.168 96.6361 49.168 97.0643H33.168C33.168 105.473 39.9837 112.287 48.39 112.287V96.2873ZM49.168 97.0643C49.168 97.4943 48.8196 97.8423 48.39 97.8423V81.8423C39.9844 81.8423 33.168 88.6564 33.168 97.0643H49.168Z" fill="#06BAB5" mask="url(#path-1-inside-1_343_6401)"/>
</svg>
