<svg width="217" height="200" viewBox="0 0 217 200" fill="none" xmlns="http://www.w3.org/2000/svg">
<path d="M93.6248 91.0633C93.6248 91.0633 121.502 67.6845 140.186 81.5341C158.87 95.3836 159.136 119.376 154.599 128.184C150.687 135.781 147.478 140.378 146.64 141.56C147.853 147.848 149.932 166.142 137.736 182.916C118.593 209.246 115.518 186.578 112.849 175.932C110.304 165.778 106.44 155.584 95.2509 154.558C83.9119 155.483 80.0829 165.719 77.5222 175.932C74.8531 186.578 71.7782 209.245 52.6352 182.916C37.5861 162.217 44.2188 139.395 44.2188 139.395C44.2188 139.395 28.2341 111.635 38.6135 94.3166C48.9928 76.9979 66.8456 76.9968 79.1233 80.733C91.401 84.4702 100.875 100.005 100.875 100.005" stroke="#06BAB5" stroke-width="8" stroke-miterlimit="3.8637" stroke-linecap="round"/>
<path fill-rule="evenodd" clip-rule="evenodd" d="M138.956 116.071L127.517 121.102L122.485 132.542L117.455 121.102L106.016 116.071L117.455 111.041L122.485 99.6016L127.517 111.041L138.956 116.071Z" stroke="#06BAB5" stroke-width="5.6693" stroke-miterlimit="3.8637" stroke-linecap="round"/>
<path fill-rule="evenodd" clip-rule="evenodd" d="M37.2105 63.1839L27.0669 67.645L22.6047 77.7897L18.1436 67.645L8 63.1839L18.1436 58.7228L22.6047 48.5781L27.0669 58.7228L37.2105 63.1839Z" stroke="#06BAB5" stroke-width="5.6693" stroke-miterlimit="3.8637"/>
<path d="M181.311 71.3884L170.182 82.403" stroke="#06BAB5" stroke-width="5.6693" stroke-miterlimit="3.8637" stroke-linecap="round"/>
<path d="M133.814 32.8364L140.635 39.6027" stroke="#06BAB5" stroke-width="6.8031" stroke-miterlimit="3.8637" stroke-linecap="round"/>
<path fill-rule="evenodd" clip-rule="evenodd" d="M141.012 40.2146C135.633 46.2392 142.141 54.0954 142.141 54.0954L181.277 93.2107C183.489 94.9735 185.641 96.2376 188.79 94.1265L194.572 88.2427C196.652 84.7203 195.251 81.1009 193.85 79.3111L156.984 42.5082C156.984 42.5082 146.656 33.8926 141.012 40.2146Z" stroke="#06BAB5" stroke-width="6.8031" stroke-miterlimit="3.8637" stroke-linecap="round"/>
<path d="M212.969 98.1666C206.839 99.6446 199.541 98.5588 192.045 90.9946" stroke="#06BAB5" stroke-width="6.8031" stroke-miterlimit="3.8637" stroke-linecap="round"/>
<path d="M105 19.2959L110.502 17.4883C110.502 17.4883 116.054 15.7162 119.012 18.2674C120.725 19.7444 123.457 22.4574 125.454 24.4798" stroke="#06BAB5" stroke-width="6.8031" stroke-miterlimit="3.8637" stroke-linecap="round"/>
<path d="M126.824 15.0326C120.102 23.335 117.492 32.3647 120.995 35.201C124.498 38.0373 132.787 33.6062 139.51 25.3038C146.232 17.0014 148.842 7.97171 145.339 5.13541C141.836 2.2991 133.547 6.73023 126.824 15.0326Z" stroke="#06BAB5" stroke-width="6.8031" stroke-miterlimit="3.8637" stroke-linecap="round"/>
</svg>
