<svg width="162" height="59" viewBox="0 0 162 59" fill="none" xmlns="http://www.w3.org/2000/svg">
<path d="M86.3615 21.8286H75.0578V43.0088H69.3873V21.8286H58.1211V17.0972H86.3615V21.8286Z" fill="#5B5F74"/>
<path d="M34.7108 34.9724L51.385 17.0972H55.4028V43.0088H49.7323V25.2836L32.9458 43.0088H29.0776V17.0972H34.7108V34.9724Z" fill="#5B5F74"/>
<path d="M19.1526 43.0088L8.97564 31.6302H5.6705V43.0088H0V17.0972H5.6705V30.3534L18.9647 17.0972H25.8748L13.369 29.1516L26.5129 43.0088H19.1526Z" fill="#5B5F74"/>
<path d="M119.136 59.0037C134.698 59.0037 147.314 46.3877 147.314 30.8251C147.314 15.2625 134.698 2.64648 119.136 2.64648C103.573 2.64648 90.957 15.2625 90.957 30.8251C90.957 46.3877 103.573 59.0037 119.136 59.0037Z" fill="#D9EDEC"/>
<path d="M151.904 23.1377C151.795 22.2443 149.051 20.2922 144.849 20.0282C140.641 19.7715 141.459 15.1455 141.459 15.1455C141.459 15.1455 141.344 13.6418 141.593 14.0081C141.843 14.369 142.501 14.9719 142.501 14.9719C142.501 14.9719 146.908 15.0879 148.732 15.2998C150.555 15.5109 152.505 17.9728 152.505 17.9728C153.573 13.5587 156.906 13.0389 159.004 12.6461C161.102 12.2542 161.153 11.0338 161.153 11.0338C161.153 11.0338 161.537 11.0146 161.748 13.6802C161.953 16.3467 159.579 18.8771 156.4 19.4051C153.221 19.9313 153.707 23.0409 153.707 23.0409L154.027 26.3624C154.871 33.4174 153.605 37.7219 148.839 43.6195C146.664 46.3043 143.415 48.1167 140.511 49.2987C141.029 50.6224 142.718 54.3367 145.68 54.7606C139.04 57.3367 132.043 53.5721 129.228 51.7469C128.019 51.8428 126.503 51.9534 124.616 52.0813C114.888 52.7363 108.772 50.5457 104.685 47.9952C102.293 46.497 101.301 45.0719 100.476 42.7142C100.278 42.1423 108.721 46.0293 116.877 42.2191C117.581 41.8272 117.51 41.6609 116.787 41.8016C112.355 42.6566 105.888 42.8996 99.805 38.8135C98.538 37.9658 98.4656 36.6355 98.0212 34.2937C97.5418 30.8956 96.3727 23.1377 105.048 14.5701C106.806 13.0473 109.895 11.9581 111.773 11.3087C113.026 11.6111 115.85 11.4314 123.768 10.7627C128.765 10.7627 133.467 14.0871 135.38 16.3809C140.062 22.0218 143.306 30.2485 143.306 30.2485C143.306 30.2485 144.489 34.8936 149.255 33.2804C154.028 31.6562 152.013 24.0311 151.904 23.1377Z" fill="#06BAB5"/>
<path d="M111.951 12.2299L109.723 0.835243C109.723 0.835243 117.231 -0.634199 125.963 0.447951L124.785 10.9382C124.326 11.1214 120.028 12.009 118.783 12.2299C118.783 12.2299 111.775 12.8359 111.951 12.2299Z" fill="#06BAB5"/>
<path d="M117.237 2.6416H119.481V5.07317H121.876V7.32157H119.481V9.73967H117.237V7.32157H114.81V5.07317H117.237V2.6416Z" fill="white"/>
<path fill-rule="evenodd" clip-rule="evenodd" d="M111.522 34.1406C111.333 31.9874 112.923 30.0856 115.074 29.8962C117.224 29.7067 119.116 31.2987 119.305 33.4519C119.493 35.6042 117.902 37.506 115.752 37.6955C113.602 37.885 111.71 36.2938 111.522 34.1406Z" fill="white"/>
<path d="M113.148 34.1988C113.073 33.3646 113.72 32.6266 114.588 32.5502C115.456 32.4748 116.216 33.0872 116.292 33.9267C116.367 34.7609 115.72 35.499 114.851 35.5753C113.984 35.6445 113.223 35.0321 113.148 34.1988Z" fill="#06BAB5"/>
</svg>
